<svg xmlns="http://www.w3.org/2000/svg" xmlns:svg="http://www.w3.org/2000/svg" id="Layer_1" width="198" height="99" x="0" y="0" enable-background="new 0 0 198 99" version="1.1" viewBox="0 0 198 99" xml:space="preserve"><metadata id="metadata327"/><g id="g5" transform="translate(-0.12000084,0)"><polyline id="polyline9" stroke-miterlimit="10" points="21.453 12.745 15.788 20.571 11.775 16.658" style="fill:none;stroke:#000;stroke-width:2.30489993;stroke-miterlimit:10"/></g><g id="g23" transform="translate(-0.26100159,0)"><polygon id="polygon27" points="45.412 15.313 49.307 15.313 49.307 11.53 54.701 16.875 49.331 22.245 49.331 18.563 45.412 18.539" style="fill:#000"/></g><g id="g41" transform="translate(-0.54399872,0)"><polygon id="polygon45" points="114.44 19.083 114.44 15.116 110.586 15.116 116.032 9.621 121.502 15.091 117.751 15.091 117.726 19.083" style="fill:#000"/><rect id="rect47" width="1" height="1" x="110.511" y="22.193" style="fill:#000"/><rect id="rect49" width="1" height="1" x="112.518" y="22.193" style="fill:#000"/><rect id="rect51" width="1" height="1" x="114.517" y="22.193" style="fill:#000"/><rect id="rect53" width="1" height="1" x="116.525" y="22.193" style="fill:#000"/><rect id="rect55" width="1" height="1" x="118.524" y="22.193" style="fill:#000"/><rect id="rect57" width="1" height="1" x="120.531" y="22.193" style="fill:#000"/></g><g id="g59" transform="translate(-0.68600464,0)"><polygon id="polygon63" points="150.79 9.621 150.79 13.588 154.644 13.588 149.198 19.083 143.728 13.612 147.479 13.613 147.504 9.621" style="fill:#000"/><rect id="rect65" width="1" height="1" x="143.652" y="22.193" style="fill:#000"/><rect id="rect67" width="1" height="1" x="145.66" y="22.193" style="fill:#000"/><rect id="rect69" width="1" height="1" x="147.659" y="22.193" style="fill:#000"/><rect id="rect71" width="1" height="1" x="149.666" y="22.193" style="fill:#000"/><rect id="rect73" width="1" height="1" x="151.666" y="22.193" style="fill:#000"/><rect id="rect75" width="1" height="1" x="153.673" y="22.193" style="fill:#000"/></g><g id="g149" transform="translate(-0.40299988,0)"><path id="path151" d="M 87.445,22.097" style="fill:#000"/><polygon id="polygon155" points="83.44 10.094 84.441 10.094 88.421 14.079 88.421 15.057 87.445 15.057 83.44 15.057" style="fill:#000"/><polygon id="polygon157" points="78.404 11.093 78.404 22.097 87.445 22.097 87.445 14.87 88.421 14.87 88.421 23.134 77.399 23.134 77.399 10.094 83.562 10.094 83.568 11.093" style="fill:#000"/><rect id="rect159" width=".995" height=".996" x="79.399" y="12.111" style="fill:#000"/><rect id="rect161" width=".995" height=".996" x="81.395" y="12.111" style="fill:#000"/><rect id="rect163" width=".995" height=".996" x="79.399" y="14.103" style="fill:#000"/><rect id="rect165" width=".995" height=".996" x="81.395" y="14.103" style="fill:#000"/><rect id="rect167" width=".995" height=".996" x="79.399" y="16.116" style="fill:#000"/><rect id="rect169" width=".995" height=".996" x="81.395" y="16.116" style="fill:#000"/><rect id="rect171" width=".995" height=".996" x="83.403" y="16.116" style="fill:#000"/><rect id="rect173" width=".995" height=".996" x="85.4" y="16.116" style="fill:#000"/><rect id="rect175" width=".995" height=".996" x="79.399" y="18.118" style="fill:#000"/><rect id="rect177" width=".995" height=".996" x="81.395" y="18.118" style="fill:#000"/><rect id="rect179" width=".995" height=".996" x="79.399" y="20.132" style="fill:#000"/><rect id="rect181" width=".995" height=".996" x="81.395" y="20.132" style="fill:#000"/><rect id="rect183" width=".995" height=".996" x="83.403" y="18.118" style="fill:#000"/><rect id="rect185" width=".995" height=".996" x="85.4" y="18.118" style="fill:#000"/><rect id="rect187" width=".995" height=".996" x="83.403" y="20.132" style="fill:#000"/><rect id="rect189" width=".995" height=".996" x="85.4" y="20.132" style="fill:#000"/></g><g id="g275" transform="translate(-0.82800293,0)"><rect id="rect279" width=".999" height=".998" x="187.819" y="16.101" style="fill:#000"/><rect id="rect281" width=".999" height=".998" x="189.825" y="16.101" style="fill:#000"/><rect id="rect283" width=".999" height=".998" x="174.833" y="16.101" style="fill:#000"/><circle id="circle285" cx="181.803" cy="16.101" r="4.09" stroke-miterlimit="10" style="fill:none;stroke:#000;stroke-width:1.95439994;stroke-miterlimit:10"/><rect id="rect287" width="2.68" height="4.423" x="175.895" y="18.428" transform="matrix(0.6915,0.7224,-0.7224,0.6915,69.5827,-121.6599)" style="fill:#000"/><rect id="rect289" width="2.028" height="1.996" x="180.789" y="15.103" style="fill:#000"/></g></svg>